<svg id="Layer_1" data-name="Layer 1" xmlns="http://www.w3.org/2000/svg"
    xmlns:xlink="http://www.w3.org/1999/xlink" viewBox="0 0 2498.6 1229.59">
    <defs>
        <style>
            .cls-1{fill:url(#linear-gradient);}.cls-2{fill:#0071b9;}.cls-3{fill:url(#linear-gradient-2);}.cls-4{fill:#1d2c5e;}.cls-5{fill:url(#linear-gradient-3);}.cls-6{fill:url(#linear-gradient-4);}.cls-7{fill:#312370;}.cls-8{fill:#21386e;}.cls-9{fill:url(#linear-gradient-5);}.cls-10{fill:url(#linear-gradient-6);}.cls-11{fill:url(#linear-gradient-7);}.cls-12{fill:#ffcb05;}.cls-13{fill:#7d7f68;}.cls-14{fill:#c7a008;}.cls-15{fill:#3c5aa6;}.cls-16{fill:#3567b0;}.cls-17{fill:#1e2d5f;}.cls-18{fill:#3466af;}.cls-19{fill:url(#linear-gradient-8);}.cls-20{fill:url(#linear-gradient-9);}.cls-21{fill:url(#linear-gradient-10);}</style>
        <linearGradient id="linear-gradient" x1="-491.35" y1="4609.36" x2="-501.36" y2="4590.69"
            gradientTransform="translate(4681.1 -42261.55) scale(9.28)"
            gradientUnits="userSpaceOnUse">
            <stop offset="0" stop-color="#0070b6" />
            <stop offset="1" stop-color="#1d2c5e" />
        </linearGradient>
        <linearGradient id="linear-gradient-2" x1="-369.17" y1="4571.19" x2="-356.46" y2="4557.56"
            xlink:href="#linear-gradient" />
        <linearGradient id="linear-gradient-3" x1="-424.63" y1="4593.92" x2="-426.15" y2="4581.19"
            xlink:href="#linear-gradient" />
        <linearGradient id="linear-gradient-4" x1="-285.74" y1="4591.47" x2="-286.35" y2="4579.97"
            gradientTransform="translate(4681.1 -42261.55) scale(9.28)"
            gradientUnits="userSpaceOnUse">
            <stop offset="0" stop-color="#125d9e" />
            <stop offset="1" stop-color="#1d2c5e" />
        </linearGradient>
        <linearGradient id="linear-gradient-5" x1="-328.17" y1="4574.89" x2="-341.51" y2="4596.12"
            xlink:href="#linear-gradient-4" />
        <linearGradient id="linear-gradient-6" x1="-446.2" y1="4608.92" x2="-437.1" y2="4626.81"
            gradientTransform="translate(4681.1 -42261.55) scale(9.28)"
            gradientUnits="userSpaceOnUse">
            <stop offset="0" stop-color="#105fa1" />
            <stop offset="1" stop-color="#1d2c5e" />
        </linearGradient>
        <linearGradient id="linear-gradient-7" x1="-480.6" y1="4602.85" x2="-470.07" y2="4627.26"
            xlink:href="#linear-gradient-6" />
        <linearGradient id="linear-gradient-8" x1="-278.37" y1="1318.58" x2="-262.44" y2="1318.58"
            gradientTransform="matrix(9.28, 0, 0, -9.28, 3233.98, 12752.36)"
            gradientUnits="userSpaceOnUse">
            <stop offset="0" stop-color="#3c5aa6" />
            <stop offset="0.93" stop-color="#2b73b9" />
            <stop offset="1" stop-color="#2a75bb" />
        </linearGradient>
        <linearGradient id="linear-gradient-9" x1="-339.52" y1="1325.13" x2="-73.82" y2="1325.13"
            gradientTransform="matrix(9.28, 0, 0, -9.28, 3183.41, 12736.72)"
            xlink:href="#linear-gradient-8" />
        <linearGradient id="linear-gradient-10" x1="618.72" y1="1025.56" x2="1881.28" y2="1025.56"
            gradientTransform="matrix(1, 0, 0, 1, 0, 0)" xlink:href="#linear-gradient-8" />
    </defs>
    <path id="polygon16" class="cls-1" d="M0,339.76,111.32,528.07l44.52-42.67L34.32,304.51Z"
        transform="translate(0 -0.24)" />
    <path id="polygon18" class="cls-2" d="M1656.77,191.34l-4.64,25L1705,198.76l-6.49-30.61Z"
        transform="translate(0 -0.24)" />
    <path id="polygon25" class="cls-3" d="M1345.08,21.58,1173.47,218.24l50.09-13.91L1386.83.24Z"
        transform="translate(0 -0.24)" />
    <path id="polygon27" class="cls-4" d="M2264.38,290.6l41.74-22.27-12.06,105.75Z"
        transform="translate(0 -0.24)" />
    <path id="polygon29" class="cls-4" d="M2001.86,358.31l38,8.35,47.31-23.19-41.75-15.77Z"
        transform="translate(0 -0.24)" />
    <path id="polygon36" class="cls-5" d="M710.58,247l5.56,121.52L769,348.11l-15.77-124.3Z"
        transform="translate(0 -0.24)" />
    <path id="polygon43" class="cls-6"
        d="M2042.67,209.89l-41.74,23.19.93,125.23L2044.53,337l13-61.23Z"
        transform="translate(0 -0.24)" />
    <path id="polygon45" class="cls-7" d="M2037.11,366.66l-46.39,411.88,74.22-14.85,13.91-419.29Z"
        transform="translate(0 -0.24)" />
    <path id="polygon47" class="cls-8"
        d="M2127.09,798l1.85,55.66,141.93,45.45,42.67-22.26L2173.47,768.33l-141-12.06-41.75,22.27Z"
        transform="translate(0 -0.24)" />
    <path id="polygon49" class="cls-8"
        d="M1600.19,699.69l34.32-18.56L1657.7,722l32.47-17.62,6.49,53.8,206.86,37.1L1944.34,772,1659.55,598.57,1457.33,632.9l-39,38Z"
        transform="translate(0 -0.24)" />
    <path id="polygon56" class="cls-9"
        d="M1534.32,193.19l-41.74,23.19-74.21,454.55,41.74-22.26,71.43-255.11Z"
        transform="translate(0 -0.24)" />
    <path id="polygon58" class="cls-4"
        d="M1204.08,254.42,1170.69,272l2.78,11.14,78.85-50.1L1218,196l-44.53,22.26Z"
        transform="translate(0 -0.24)" />
    <path id="polygon60" class="cls-8" d="M1294.06,791.52l-336.73-167,41.74-32.47,336.74,176.25Z"
        transform="translate(0 -0.24)" />
    <path id="polygon62" class="cls-4" d="M988.87,170l-51,96.48,53.8-15.77,39-103.9Z"
        transform="translate(0 -0.24)" />
    <path id="path69" class="cls-10"
        d="M525.05,569.82,482.37,599.5s9.28,48.24,21.34,81.63,39.89,60.3,39.89,60.3c18.55,17.63,39.89,30.61,64.93,38,47.31,13.92,101.12,4.64,147.5-25,12.06-7.42,28.76-19.48,39-29.69-45.45,27.83-269.94-154.91-269.94-154.91Z"
        transform="translate(0 -0.24)" />
    <path id="polygon71" class="cls-4"
        d="M756,359.24l39,433.21L956.4,769.26,999.07,747,799.63,333.27l-40.82,13.91-42.67,21.34Z"
        transform="translate(0 -0.24)" />
    <path id="polygon78" class="cls-11"
        d="M153.06,509.52,333,916.76,503.71,862l41.74-27.83L191.09,463.14,146.57,490l-35.25,38Z"
        transform="translate(0 -0.24)" />
    <path id="path80" class="cls-4"
        d="M1933.21,701.54,1936,722c14.84-1.85,29.69-3.71,43.6-8.35,15.77-5.56,49.17-20.41,61.23-31.54-5.57,1.86-83.49,22.27-107.61,19.48"
        transform="translate(0 -0.24)" />
    <path id="path82" class="cls-4"
        d="M1329.31,597.65l6.5,32.46c34.32-5.56,64-17.62,93.69-35.25,18.55-11.13,38-26.9,44.53-31.54-4.64,2.79-144.72,34.33-144.72,34.33Z"
        transform="translate(0 -0.24)" />
    <g id="g84">
        <path id="path86" class="cls-12"
            d="M379.86,877.92l-13-29.68L196.19,467.91l-3.71-7.42-7.42,3.71L179.49,467l-30.61,14.84c-4.64-7.42-12.06-20.41-16.7-28.76L63.53,337.11,45.91,306.5l29.68-18.56a643.89,643.89,0,0,1,94.62-49.16c68.65-28.76,138.22-44.53,202.23-44.53a408.58,408.58,0,0,1,60.3,4.64c31.54,3.71,61.22,13.91,85.34,30.61,36.18,20.41,64.93,51.95,80.7,89.06,13,30.61,15.77,66.79,7.43,103.89l-4.64,22.27,18.55-13a163,163,0,0,1,39-22.27c24.12-10.2,49.17-15.77,74.21-15.77q36.18,0,66.79,13.92l13,5.57-.93-14.85-5.56-62.15-.93-10.2-9.28,2.78-28.75,7.42L763,230.43l211.5-67.72-1.85,82.56L988.4,249l46.38-88.12L1173,283.31l5.56,5.56,5.57-5.56a216.52,216.52,0,0,1,66.79-42.68l10.2-4.63-7.42-9.28-25-30.61L1387.28,13.36l83.49,124.31-127.09,68.64-27.83,14.84,32.47.93c60.3.93,114.1,26.9,150.28,71.43l13,16.7,8.34,10.2L1506,335.25l-9.28,10.21-31.54,34.32-5.56,6.49,6.49,5.57,29.69,26.9L1507,429l2.78-14.85,11.13-70.5,2.79-18.55,2.78-18.55,16.7-104.83h157.7l.92-7.42,2.79-17.62h137.29l33.39,209.64,1.86,13.92,11.13-8.35c13.91-10.2,28.76-17.63,44.53-24.12a175.06,175.06,0,0,1,64.93-12.06c26,0,51,5.57,72.36,17.63.93,0,.93.92,2.78,1.85l10.2,3.71.93-11.13,2.79-23.19.92-7.42-7.42-1.86-27.83-6.49-.92-109.46,212.43,46.38,15.77,78.85h16.69l16.7-67.72,177.18,42.67L2308.43,865.87l-128.94-40.82-.93-50.09v-7.42l-7.42-.93L2042.2,748.05l7.42-65.86,1.85-15.77-13.91,7.42a87.85,87.85,0,0,1-19.48,8.35,173.84,173.84,0,0,1-64,12.06,124,124,0,0,1-18.55-.93l-11.13-.92,1.85,11.13,9.28,57.51-188.31-33.39L1737,642.3l-2.78-27.83-13,24.12-21.33,41.75L1660,607.05,1648,584.79l-3.71,25.05-8.35,56.58-165.12-26,13-77.92,2.78-17.63-15.77,9.28c-26.9,15.77-58.44,28.75-94.62,37.1-13,2.79-26,5.57-39.89,6.5l-7.42.92V754.55L1004.17,594.07l-12.06-5.57V739.71L846.47,761,840,695.18l-1.85-17.63-13,12.06c-19.48,18.56-40.82,33.4-64,43.6C737,743.42,712,749,687.84,749a173,173,0,0,1-69.57-14.84c-39-18.55-67.72-52.88-79.78-96.47a163.8,163.8,0,0,1-4.64-64l2.78-23.19-16.69,16.69a448.67,448.67,0,0,1-39,32.47l-4.63,3.71,1.85,5.57,49.17,187.38,8.35,33.4-32.47,10.2L411.4,869.58l-31.54,8.34Zm40.82-503.71a84.77,84.77,0,0,0-14.85.93l-6.49.93-9.28,1.85,2.79,9.28,1.85,5.57,26,86.27,2.78,8.35,3.71,12.06,9.28-8.35,6.49-5.57c26-23.19,34.32-46.38,28.76-76.07-3.71-17.62-16.7-26-25.05-29.68-5.56-3.71-15.77-5.57-26-5.57ZM1127.54,377l-16.7,15.77-43.6,41.74-9.27,9.28,12.06,4.64,46.38,17.62,13.91,5.57-2.78-14.85a201.23,201.23,0,0,1-2.78-57.51Zm189.24-48.24a62.76,62.76,0,0,0-47.31,21.34,66.12,66.12,0,0,0-9.28,75.13l3.72,6.5,5.56,10.2,8.35-9.27,5.57-5.57,64-72.36,4.64-5.56,8.35-9.28-11.13-4.64-7.42-2.78c-9.28-1.85-16.7-3.71-25-3.71Z"
            transform="translate(0 -0.24)" />
    </g>
    <path id="path88" class="cls-13" d="M1413.73,436.24l-1.86,1.85A2,2,0,0,0,1413.73,436.24Z"
        transform="translate(0 -0.24)" />
    <path id="polygon90" class="cls-13"
        d="M1469.39,386.14l31.54-34.32L1489.8,363V362l-9.28,10.2L1449,405.62l29.68,26.91,5.57-33.4,14.84,13Z"
        transform="translate(0 -0.24)" />
    <path id="polygon92" class="cls-13" d="M1469.39,386.14l29.68,26,11.13-70.5-9.27,10.2Z"
        transform="translate(0 -0.24)" />
    <path id="path94" class="cls-13" d="M1073.28,440.87" transform="translate(0 -0.24)" />
    <path id="path96" class="cls-14"
        d="M1249.54,470.56c2.78,2.78,0,.93,2.78,2.78l19.48-13.91c-2.78-1.86-5.57-4.64-8.35-6.5-27.83-26-20.41-83.48-2.78-115-48.24,39-45.46,98.33-11.13,132.65"
        transform="translate(0 -0.24)" />
    <path id="path98" class="cls-14"
        d="M1484.23,503c-32.47,26.9-68.65,43.6-116.88,55.66-10.21,2.78-21.34,4.63-30.62,4.63-77,7.42-141-27.83-165.12-84.41a145.46,145.46,0,0,1-7.42-21.34c-11.13-48.24-1.85-90.91,22.27-125.23,2.78-3.71,4.63-6.49,7.42-9.28-.93.93-2.79,1.86-3.71,2.79-9.28,8.35-17.63,16.69-24.12,26.9-24.12,33.39-33.4,77-22.27,125.23,1.86,7.42,3.72,14.84,7.43,21.34,24.11,57.51,89,92.76,165.12,85.34a205.11,205.11,0,0,0,31.54-5.57c48.23-12.06,85.34-28.75,116.88-55.65,7.42-6.5,15.77-13.92,23.19-21.34l-.93-.93c-1.85.93-2.78.93-2.78,1.86"
        transform="translate(0 -0.24)" />
    <path id="polygon100" class="cls-14" d="M943.41,357.39l85.35-120.6-3.71-2.78L942.49,350Z"
        transform="translate(0 -0.24)" />
    <path id="polygon102" class="cls-14"
        d="M1510.2,341.62l-11.13,70.5-14.84-13-5.57,33.4L1449,405.62l31.54-33.39,9.28-10.2V363l11.13-11.13Z"
        transform="translate(0 -0.24)" />
    <path id="polygon104" class="cls-14" d="M1404.45,143.1l29.69-13-54.73-70.5-17.63,26Z"
        transform="translate(0 -0.24)" />
    <path id="path106" class="cls-14"
        d="M573.28,317.5c-139.14-168.83-388.68-77.92-477.73.93l3.71,6.49c20.41-12.06,42.67-22.26,64.93-32.47,89.06-38,174.4-49.16,242.12-37.1,24.12,2.78,49.16,10.2,71.43,25,30.61,17.63,53.8,41.75,67.71,73.29,24.12,55.65,2.79,129.87-53.8,191.09,71.43-65.86,120.59-128.94,81.63-227.27Z"
        transform="translate(0 -0.24)" />
    <path id="path108" class="cls-14"
        d="M856.22,514.16c-.93-2.78-.93-6.49-1.86-9.28A111.78,111.78,0,0,0,808,440c-35.25-24.12-85.35-28.76-134.51-8.35-26,11.13-48.24,28.76-66.79,49.16,13.91-12.06,29.68-21.33,46.38-28.75,49.17-21.34,99.26-15.77,134.51,8.35A111.78,111.78,0,0,1,834,525.29a32.84,32.84,0,0,1,1.86,9.28A192.28,192.28,0,0,1,838.59,567c-.93,32.47-13,64.94-32.47,92.77-2.78,4.64-6.49,8.35-10.2,13,11.13-10.21,21.33-20.41,29.68-32.47A173.87,173.87,0,0,0,859,547.55a203.32,203.32,0,0,0-2.78-33.39"
        transform="translate(0 -0.24)" />
    <path id="path110" class="cls-14"
        d="M719.85,473.34s20.41-20.41,19.48-20.41c-25-.92-36.18,23.2-37.1,25.05,5.56-2.78,11.13-3.71,17.62-4.64"
        transform="translate(0 -0.24)" />
    <path id="path112" class="cls-14"
        d="M767.16,502.1c.93,3.71,1.86,6.49,1.86,10.2,0,5.57-.93,10.21-3.71,14.85,3.71-1.86,33.39-16.7,22.26-46.39.93,1.86-21.34,21.34-20.41,21.34"
        transform="translate(0 -0.24)" />
    <path id="path114" class="cls-14"
        d="M652.13,519.72c0-12.05,21.34-42.67,27.83-52.87-33.39,21.33-48.23,50.09-48.23,72.35,0,39,34.32,70.51,75.13,70.51,19.49,0,54.74-10.21,77.93-47.31-12.06,8.34-42.67,26.9-59.37,26.9-40.82,0-73.29-30.61-73.29-69.58"
        transform="translate(0 -0.24)" />
    <path id="polygon116" class="cls-14" d="M938.78,555l.92,156.78,25,1.85-5.57-179Z"
        transform="translate(0 -0.24)" />
    <path id="polygon118" class="cls-14"
        d="M795.92,255.35v13.91L914.66,234,923,385.22l20.4-27.83-4.63-151.21Z"
        transform="translate(0 -0.24)" />
    <path id="polygon120" class="cls-14" d="M1153.06,309.15l-110.39-102-13.91,29.68,98.33,91.84Z"
        transform="translate(0 -0.24)" />
    <path id="path122" class="cls-14"
        d="M1136.36,499.32l-130.79-43.6L987,476.13l129.87,51.94a177.49,177.49,0,0,0,64.94,68.65c26.9,16.7,58.44,26.9,90.91,29.68v64l20.41,10.2,6.49-96.47L1136.36,499.32Z"
        transform="translate(0 -0.24)" />
    <path id="path124" class="cls-14"
        d="M1346,481.69c32.47-7.42,50.09-24.12,66.79-42.67-12.06,10.2-71.43,23.19-81.63,26l-19.48,21.34c8.35,0,23.19-1.86,34.32-4.64"
        transform="translate(0 -0.24)" />
    <path id="path126" class="cls-14"
        d="M1287.57,259.06c-59.37,7.42-90,57.51-94.62,63.08a183.75,183.75,0,0,1,79.78-39C1346,265.55,1410,287.81,1449.91,337l25-20.41c-39.88-48.24-114.1-75.14-187.38-57.51"
        transform="translate(0 -0.24)" />
    <path id="path128" class="cls-14"
        d="M1486.09,501.17c7.42-5.56,19.48-12.06,26.9-19.48l-78.85-70.5c-6.5,7.42-11.13,19.48-18.56,25.05l70.51,64.93Z"
        transform="translate(0 -0.24)" />
    <path id="path130" class="cls-14"
        d="M1891.47,690.41c-82.56-68.64-77.93-214.28-37.11-260.67l-36.18-229.12-79.78,10.2-3.71,20.41H1795L1827.46,439c-40.82,46.38-60.3,108.53-47.31,166.05,10.2,44.52,38,79.78,77,100.18,3.71,1.86,8.35,3.71,12.06,5.57l.93,2.78,24.12,3.71c-.93.93,1.85-25-2.78-26.9Z"
        transform="translate(0 -0.24)" />
    <path id="polygon132" class="cls-14"
        d="M1573.28,234l-3.71,20.41h90.91l26.9,147.49,20.41-20.4-21.33-155.85Z"
        transform="translate(0 -0.24)" />
    <path id="polygon134" class="cls-14" d="M1729.13,519.72l-29.69,76.07,7.42,20.41,41.75-116Z"
        transform="translate(0 -0.24)" />
    <path id="polygon136" class="cls-14" d="M1641.93,472.41l-20.41,20.41-22.26,137.29,21.33,7.43Z"
        transform="translate(0 -0.24)" />
    <path id="path138" class="cls-14"
        d="M2051,427.89a99.77,99.77,0,0,1,29.69,32.47c6.49,10.2,10.2,20.4,13.91,33.39,10.2,41.74-1.86,86.27-27.83,121.52a99.51,99.51,0,0,1-8.35,10.21c10.21-9.28,140.08-104.83,13.92-230.06-139.15-45.45-192,44.53-196.66,51,14.84-12.06,31.54-23.19,50.09-29.68,46.38-18.56,92.76-12.06,125.23,11.13"
        transform="translate(0 -0.24)" />
    <path id="polygon146" class="cls-14"
        d="M2274.58,821.21l13,8.35,163.26-489.8-122.44-27.83-.93,28.76L2425.79,362Z"
        transform="translate(0 -0.24)" />
    <path id="polygon148" class="cls-14"
        d="M2080.71,259.06l.92,27.83,129.87,26,50.1,237.48,20.4-20.41-48.23-240.26Z"
        transform="translate(0 -0.24)" />
    <path id="polygon150" class="cls-14" d="M2180.89,529.93l-36.18,202.22,20.41,6.5,36.18-229.13Z"
        transform="translate(0 -0.24)" />
    <path id="polygon152" class="cls-14" d="M495.36,806.37l-60.3-220.78L412.8,601.36l56.59,210.57Z"
        transform="translate(0 -0.24)" />
    <path id="path154" class="cls-14"
        d="M479.59,475.2c-13.91,14.84-45.45,43.6-63.08,54.73l-11.13-34.32-23.19-76.07-14.84-51L352.5,387.07l14.85,51,23.19,75.14,11.13,34.32c25.05-13.91,60.3-43.6,77.92-72.35"
        transform="translate(0 -0.24)" />
    <path id="path156" class="cls-13"
        d="M1340.45,344.4c-19.49-7.42-46.39-5.57-61.23,11.13-3.71,3.71-10.2,13-12.06,17.63,13.92-11.13,39.89-13.92,55.66-7.42l17.63-21.34Z"
        transform="translate(0 -0.24)" />
    <path id="path158" class="cls-13"
        d="M462.89,413.05c-1.85-11.14-13-20.41-18.55-23.2-9.28-4.63-26.9-5.56-39-2.78,1.86,7.42,4.64,16.7,5.57,20.41,4.63.93,13,1.85,17.62,3.71,5.57,2.78,14.84,8.35,16.7,20.41,2.78,14.84,1.85,29.68-4.64,40.81,17.63-16.69,26-35.25,22.26-59.36"
        transform="translate(0 -0.24)" />
    <g id="g160">
        <g id="g162">
            <path id="path164" class="cls-15"
                d="M493,412.25c-8.35-44.53-66.79-69.58-125.23-38l14.84,51,23.19,76.07L417,535.62c43.6-26.9,87.2-61.22,76.06-123.37Zm-57.51,69.57c-6.49-20.41-20.41-64.93-20.41-64.93s-2.78-9.28-6.49-20.41c12.06-1.86,24.12-.93,33.39,3.71,5.57,2.78,14.85,8.35,16.7,20.41,5.57,24.12-2.78,42.67-23.19,61.22Z"
                transform="translate(0 -0.24)" />
        </g>
    </g>
    <g id="g166">
        <g id="g168">
            <path id="path170" class="cls-16"
                d="M1370.58,341.75c-32.46-29.69-82.56-27.83-112.24,4.63S1230.51,429,1263,458.63a50.41,50.41,0,0,0,8.35,6.49l104.82-118.74A24.71,24.71,0,0,1,1370.58,341.75Zm-98.33,83.48a50.75,50.75,0,0,1,7.43-59.36,52,52,0,0,1,56.58-13l-64,72.35Z"
                transform="translate(0 -0.24)" />
        </g>
    </g>
    <path id="polygon172" class="cls-17" d="M1510.2,328.63l-57.51,55.66,54.73,49.16Z"
        transform="translate(0 -0.24)" />
    <path id="path140" class="cls-14"
        d="M1981.45,437.16c0,.93,20.41-20.4,20.41-20.4-25,.92-37.11,13-35.26,18.55-1.85,1.85-2.78,4.64-3.71,6.49,4.64-2.78,14.85-4.64,18.56-4.64"
        transform="translate(0 -0.24)" />
    <path id="path142" class="cls-14"
        d="M2027.83,468.7a38,38,0,0,1,.93,10.21c0,4.64-1.86,9.27-3.71,13,3.71-1.86,33.39-11.14,22.26-44.53.93,1.85-20.41,21.33-19.48,21.33"
        transform="translate(0 -0.24)" />
    <path id="path144" class="cls-14"
        d="M1962,573.53c27.83.93,59.37-15.77,81.63-46.38-56.59,12.05-116.88-83.49-111.32-92.77-21.33,15.77-40.81,45.46-41.74,66.79-1.86,39,30.61,70.5,71.43,72.36"
        transform="translate(0 -0.24)" />
    <path id="path174" class="cls-18"
        d="M2047.31,448.3a45,45,0,0,1,.93,11.13c-.93,22.26-21.34,39-46.38,38s-44.53-19.48-43.6-41.74c.92-20.41,19.48-37.11,41.74-38a72.24,72.24,0,0,0-13.91-1.85c-41.75-1.86-75.14,27.83-77,64-1.85,39,29.69,71.42,70.5,72.35,41.75,1.86,75.14-27.83,77-66.79,2.78-13-1.86-26-9.28-37.1"
        transform="translate(0 -0.24)" />
    <path id="path183" class="cls-19"
        d="M789.42,492.82c0,22.27-20.4,39.89-44.52,39.89-25,0-44.53-17.62-44.53-39.89,0-20.41,17.63-38,40.82-39.89a70.84,70.84,0,0,0-13.92-.92c-41.74,0-74.21,30.61-74.21,67.71,0,39,32.47,69.58,73.29,69.58,41.74,0,74.21-30.61,74.21-69.58,0-13.91-4.64-26-12.06-37.1,0,2.78.92,6.49.92,10.2"
        transform="translate(0 -0.24)" />
    <g id="g185">
        <g id="g187">
            <path id="path196" class="cls-20"
                d="M2305.65,268.46l-18.55,76.07-16.7-84.42L2042.2,210l1.85,127.09,34.33,7.42-2.79,23.19a.9.9,0,0,1-.92-.93c-42.68-22.26-95.55-25-144.72-5.56a203,203,0,0,0-46.38,25l-34.32-217.06H1698l-3.71,25H1534.78l-18.56,111.32-13-16.7c-39-47.31-94.62-73.28-156.77-75.14l135.43-72.35L1387.28.37,1216.6,197l29.68,36.18q-40.35,16.69-69.57,44.53L1030.14,147.87l-51,97.4L981,150.65,751.85,223.94l6.49,122.44,39-10.2,5.57,62.15c-44.53-20.41-98.33-19.48-147.5,1.86-14.84,6.49-28.76,13.91-40.82,23.19,8.35-38,6.5-75.14-8.34-108.53-16.7-39-47.31-72.36-83.49-92.77-26-17.62-56.59-27.83-89.06-31.54-78.85-13.91-174.39,0-268.08,39.89C131.25,245.27,98.78,262,70,280.52L33.85,303.71l22.26,37.11L124.76,457.7,146.09,493,183.2,474.4l5.57-2.78L359.45,852l16.7,36.18,38-12.06L506,846.38l40.82-13-10.21-40.82L487.47,605.2a337,337,0,0,0,39-33.4,179.55,179.55,0,0,0,4.64,66.79c13,45.46,42.67,81.64,84.41,101.12C660,761,714.74,761,764.83,739.71c25-11.14,48.24-26,66.79-45.46l6.5,75.14,161.41-24.12V600.56l336.73,167V607.05c13.92-.92,26.9-3.71,40.82-6.49,37.1-9.28,68.64-21.34,97.4-38l-13.91,86.27,181.81,28.75,10.21-65.86,47.31,88.13,28.76-55.66,10.2,91.84,205.94,36.17-11.14-69.57c27.83,2.78,57.52-.93,86.28-11.13,6.49-2.78,13.91-5.57,19.48-9.28l-8.35,74.21,137.29,19.48.93,56.59L2312.14,877,2498.6,315.77l-192.95-47.31ZM1500.45,352l9.28-10.2-11.13,70.5-29.69-26.9ZM1379.86,62.53,1430,130.24l-142.85,70.5-10.21-14.84C1276.89,186.83,1379.86,62.53,1379.86,62.53ZM434.59,585.72l56.59,218.92-91.84,29.69-189.24-423c-10.2,5.57-29.68,14.84-46.38,23.19L95.07,318.56c26.91-17.63,57.52-32.47,89.06-46.39,89.05-38,174.4-49.16,242.11-37.1,24.12,2.78,49.17,10.2,71.43,25,30.61,17.63,53.8,41.75,67.72,73.29,33.39,76.06-21.34,185.53-130.8,252.32Zm423.94-39c-.93,32.46-13,64.93-33.4,92.76a187.85,187.85,0,0,1-77,62.15c-79.78,34.33-159.56,0-180.9-76.06-20.4-73.29,27.83-160.49,104.83-193.88,49.16-21.34,99.26-15.77,134.51,8.35A111.78,111.78,0,0,1,853,505a32.89,32.89,0,0,1,1.85,9.28C858.53,525.42,858.53,536.55,858.53,546.76Zm435.06,154.91-334.88-167L959.64,710l-86.27,12.06-6.5-72.36c26.91-45.45,36.18-100.18,22.27-149.35-7.42-26.9-21.34-51-40.82-69.57L836.26,283.31l-39,10.2-1.85-37.11,139.14-41.74,8.35,142.86,102-143.79,101.11,95.55L1006,456.77l131.73,52c14.84,27.83,37.1,51,64.93,68.65,26.9,16.7,58.44,26.9,90.91,29.68v94.62Zm-173.47-243L1073.74,441l43.6-41.74A160.93,160.93,0,0,0,1120.12,458.63Zm363.64,44.53c-32.47,26.9-68.65,43.6-116.89,55.66-10.2,2.78-21.33,4.63-30.61,4.63-77,7.42-141-27.83-165.12-84.41a144.3,144.3,0,0,1-7.42-21.34c-11.13-48.24-1.86-90.91,22.26-125.23,6.5-10.2,14.85-18.55,24.12-26.9,22.27-20.41,51-34.32,83.49-42.67,73.28-17.63,137.29,4.64,177.18,52.87L1331.62,464.2c9.28,1.85,24.12-.93,35.25-3.71,33.4-8.35,52-26,67.72-44.53l55.66,50.09,16.7,14.84A174.49,174.49,0,0,1,1483.76,503.16Zm295.92,197.58-30.62-200.37-42.67,110.39-64-138.22h-.92l-25,160.49-106.68-18.56,14.84-89.05c3.71-3.71,8.35-7.42,12.06-12.06L1571,478.11l-33.4-30.61,36.18-213.36h107.61l26.9,147.5L1738.86,211h77l32.47,207.79c-40.82,46.38-60.3,108.54-47.31,166,10.21,44.53,38,79.78,77,101.11,3.71,1.86,8.34,3.71,12,5.57l3.72,26.9Zm266.23-65.86c-12.06,8.35-25.05,15.77-39,20.41-27.83,10.2-54.73,13-79.78,7.42a136.87,136.87,0,0,1-46.38-19.48c-21.34-15.77-37.11-38-44.53-66.79-8.35-34.32-.93-71.43,17.63-103.9A196.06,196.06,0,0,1,1889.14,429c15.77-13.92,34.32-26,53.8-33.4,47.31-17.63,93.69-11.13,126.16,12.06a99.63,99.63,0,0,1,29.68,32.47,131.25,131.25,0,0,1,13,33.39c10.21,41.75-1.85,86.27-27.83,121.52-8.35,15.77-22.26,28.76-38,39.89ZM2287.1,824.12l-78.85-23.19-6.5-291.28-39.89,224.49-86.27-13.91,6.5-64.94c56.58-47.31,86.27-122.45,69.57-191.09-7.42-29.69-22.26-56.59-44.53-76.07l7.42-76.07-32.46-8.35.92-40.81,148.43,29.68,50.09,236.55,51-212.43,113.17,25.05L2287.1,824.12Z"
                transform="translate(0 -0.24)" />
        </g>
    </g>
    <path id="path198"
        d="M2393.32,791.52H2397c4.64,0,8.35-1.85,8.35-6.49,0-2.78-2.78-6.49-8.35-6.49h-3.71v13Zm0,19.48h-5.56V775.75c2.78-.92,5.56-.92,10.2-.92q8.36,0,11.13,2.78c1.86,1.85,3.71,3.71,3.71,7.42a8.13,8.13,0,0,1-6.49,8.35,8.41,8.41,0,0,1,5.56,8.35c.93,5.56,1.86,7.42,1.86,8.35h-5.57c-.92-.93-1.85-4.64-2.78-9.28s-2.78-6.49-7.42-6.49h-4.64V811Zm6.49-45.45c-13.91,0-25,12.06-25,26.9s11.13,26.9,26,26.9c13.92,0,25.05-12.06,25.05-26.9C2424.86,777.61,2413.73,765.55,2399.81,765.55Zm0-4.64c17.63,0,30.62,13.92,30.62,31.54a31.54,31.54,0,1,1-63.08,0C2368.27,774.83,2382.19,760.91,2399.81,760.91Z"
        transform="translate(0 -0.24)" />
    <path class="cls-21"
        d="M1881.28,821.29V967.86s-275.74,264.89-605.78,261.95q-25.5-.22-51,0c-330,2.94-605.79-261.95-605.79-261.95V821.29l46.88,39.32c17.53,14.7,34.6,29.94,51.38,45.48,44.08,40.83,93.44,74.24,144.4,101.57a823.16,823.16,0,0,0,777.23,0c51-27.33,100.32-60.74,144.4-101.57,16.79-15.54,33.87-30.78,51.4-45.48Z"
        transform="translate(0 -0.24)" />
</svg>